# Blender v2.74 (sub 0) OBJ File: 'SkeletonTest6.blend'
# www.blender.org
mtllib body.mtl
o Body
v -0.212247 -0.199188 0.061975
v -0.212247 0.199188 0.061975
v -0.212247 -0.199188 -0.061975
v -0.212247 0.199188 -0.061975
v 0.212247 -0.199188 0.061975
v 0.212247 0.199188 0.061975
v 0.212247 -0.199188 -0.061975
v 0.212247 0.199188 -0.061975
v 0.000000 0.199188 -0.061975
v 0.000000 -0.199188 -0.061975
v 0.000000 0.199188 0.061975
v 0.000000 -0.199188 0.061975
vn 0.000000 0.000000 1.000000
vn 0.000000 1.000000 0.000000
vn 0.000000 -1.000000 0.000000
vn 0.000000 0.000000 -1.000000
vn -1.000000 0.000000 0.000000
vn 1.000000 0.000000 0.000000
usemtl None
s off
f 2//1 1//1 12//1
f 9//2 4//2 2//2
f 3//3 10//3 12//3
f 9//4 10//4 3//4
f 2//5 4//5 3//5
f 12//1 5//1 6//1
f 6//2 8//2 9//2
f 12//3 10//3 7//3
f 7//4 10//4 9//4
f 7//6 8//6 6//6
f 11//1 2//1 12//1
f 11//2 9//2 2//2
f 1//3 3//3 12//3
f 4//4 9//4 3//4
f 1//5 2//5 3//5
f 11//1 12//1 6//1
f 11//2 6//2 9//2
f 5//3 12//3 7//3
f 8//4 7//4 9//4
f 5//6 7//6 6//6
o UpperLegR
v 0.063113 0.000000 0.053404
v 0.063113 0.000000 -0.053404
v -0.063113 0.000000 0.053404
v -0.063113 0.000000 -0.053404
v -0.063113 -0.683866 -0.053404
v -0.063113 -0.683866 0.053404
v 0.063113 -0.683866 0.053404
v 0.063113 -0.683866 -0.053404
vn 1.000000 0.000000 0.000000
vn 0.000000 0.000000 -1.000000
vn 0.000000 0.000000 1.000000
vn -1.000000 0.000000 0.000000
vn 0.000000 -1.000000 0.000000
usemtl None
s off
f 13//7 19//7 20//7
f 14//8 20//8 17//8
f 15//9 18//9 19//9
f 16//10 17//10 18//10
f 17//11 20//11 19//11
f 14//7 13//7 20//7
f 16//8 14//8 17//8
f 13//9 15//9 19//9
f 15//10 16//10 18//10
f 18//11 17//11 19//11
o LowerLegR
v -0.055730 0.000000 -0.047157
v -0.055730 0.000000 0.047157
v 0.055730 0.000000 0.047157
v 0.055730 0.000000 -0.047157
v 0.055730 -0.674104 -0.047157
v 0.055730 -0.674104 0.047157
v -0.055730 -0.674104 -0.047157
v -0.055730 -0.674104 0.047157
vn 0.000000 0.000000 -1.000000
vn 1.000000 0.000000 0.000000
vn 0.000000 0.000000 1.000000
vn -1.000000 0.000000 0.000000
usemtl None
s off
f 24//12 25//12 27//12
f 23//13 26//13 25//13
f 22//14 28//14 26//14
f 21//15 27//15 28//15
f 21//12 24//12 27//12
f 24//13 23//13 25//13
f 23//14 22//14 26//14
f 22//15 21//15 28//15
o FootR
v -0.063113 -0.054320 -0.053404
v -0.063113 -0.054320 0.053404
v 0.063113 -0.054320 0.053404
v 0.063113 -0.054320 -0.053404
v 0.063113 0.000000 -0.053404
v 0.063113 0.000000 0.053404
v -0.063113 0.000000 -0.053404
v -0.063113 0.000000 0.053404
v -0.063113 -0.054320 0.190224
v 0.063113 -0.054320 0.190224
v 0.063113 -0.012504 0.190224
v -0.063113 -0.012504 0.190224
vn 1.000000 0.000000 0.000000
vn 0.000000 -1.000000 0.000000
vn 0.000000 0.000000 -1.000000
vn 0.000000 0.995800 0.091000
vn -1.000000 0.000000 0.000000
vn 0.000000 0.000000 1.000000
vn 0.000000 1.000000 0.000000
usemtl None
s off
f 34//16 31//16 32//16
f 29//17 32//17 31//17
f 33//18 32//18 29//18
f 36//19 40//19 39//19
f 35//20 29//20 30//20
f 40//21 37//21 38//21
f 30//20 37//20 40//20
f 31//16 34//16 39//16
f 31//17 38//17 37//17
f 36//22 34//22 33//22
f 33//16 34//16 32//16
f 30//17 29//17 31//17
f 35//18 33//18 29//18
f 34//19 36//19 39//19
f 36//20 35//20 30//20
f 39//21 40//21 38//21
f 36//20 30//20 40//20
f 38//16 31//16 39//16
f 30//17 31//17 37//17
f 35//22 36//22 33//22
o UpperLegL
v -0.063113 0.000000 0.053404
v -0.063113 0.000000 -0.053404
v 0.063113 0.000000 0.053404
v 0.063113 0.000000 -0.053404
v 0.063113 -0.683866 -0.053404
v 0.063113 -0.683866 0.053404
v -0.063113 -0.683866 0.053404
v -0.063113 -0.683866 -0.053404
vn -1.000000 0.000000 0.000000
vn 0.000000 0.000000 -1.000000
vn 0.000000 0.000000 1.000000
vn 1.000000 0.000000 0.000000
vn 0.000000 -1.000000 0.000000
usemtl None
s off
f 48//23 47//23 41//23
f 45//24 48//24 42//24
f 47//25 46//25 43//25
f 46//26 45//26 44//26
f 47//27 48//27 45//27
f 42//23 48//23 41//23
f 44//24 45//24 42//24
f 41//25 47//25 43//25
f 43//26 46//26 44//26
f 46//27 47//27 45//27
o LowerLegL
v 0.055730 0.000000 -0.047157
v 0.055730 0.000000 0.047157
v -0.055730 0.000000 0.047157
v -0.055730 0.000000 -0.047157
v -0.055730 -0.674104 -0.047157
v -0.055730 -0.674104 0.047157
v 0.055730 -0.674104 -0.047157
v 0.055730 -0.674104 0.047157
vn 0.000000 0.000000 -1.000000
vn -1.000000 0.000000 0.000000
vn 0.000000 0.000000 1.000000
vn 1.000000 0.000000 0.000000
usemtl None
s off
f 55//28 53//28 52//28
f 53//29 54//29 51//29
f 54//30 56//30 50//30
f 56//31 55//31 49//31
f 49//28 55//28 52//28
f 52//29 53//29 51//29
f 51//30 54//30 50//30
f 50//31 56//31 49//31
o FootL
v 0.063113 -0.054320 -0.053404
v 0.063113 -0.054320 0.053404
v -0.063113 -0.054320 0.053404
v -0.063113 -0.054320 -0.053404
v -0.063113 0.000000 -0.053404
v -0.063113 0.000000 0.053404
v 0.063113 0.000000 -0.053404
v 0.063113 0.000000 0.053404
v 0.063113 -0.054320 0.190224
v -0.063113 -0.054320 0.190224
v -0.063113 -0.012504 0.190224
v 0.063113 -0.012504 0.190224
vn -1.000000 0.000000 0.000000
vn 0.000000 -1.000000 0.000000
vn 0.000000 0.000000 -1.000000
vn 0.000000 0.995800 0.091000
vn 1.000000 0.000000 0.000000
vn 0.000000 0.000000 1.000000
vn 0.000000 1.000000 0.000000
usemtl None
s off
f 60//32 59//32 62//32
f 59//33 60//33 57//33
f 57//34 60//34 61//34
f 67//35 68//35 64//35
f 58//36 57//36 63//36
f 66//37 65//37 68//37
f 68//36 65//36 58//36
f 59//32 66//32 67//32
f 65//33 66//33 59//33
f 61//38 62//38 64//38
f 61//32 60//32 62//32
f 58//33 59//33 57//33
f 63//34 57//34 61//34
f 62//35 67//35 64//35
f 64//36 58//36 63//36
f 67//37 66//37 68//37
f 64//36 68//36 58//36
f 62//32 59//32 67//32
f 58//33 65//33 59//33
f 63//38 61//38 64//38
o ShoulderL
v 0.000000 -0.058896 -0.058896
v 0.000000 0.058896 -0.058896
v 0.000000 0.058896 0.058896
v 0.000000 -0.058896 0.058896
v 0.114908 -0.058896 -0.058896
v 0.114908 0.058896 -0.058896
v 0.114908 0.058896 0.058896
v 0.114908 -0.058896 0.058896
vn 0.000000 0.000000 1.000000
vn 0.000000 0.000000 -1.000000
vn 0.000000 1.000000 0.000000
vn 0.000000 -1.000000 0.000000
vn 1.000000 0.000000 0.000000
usemtl None
s off
f 72//39 76//39 75//39
f 70//40 74//40 73//40
f 71//41 75//41 74//41
f 69//42 73//42 76//42
f 74//43 75//43 76//43
f 71//39 72//39 75//39
f 69//40 70//40 73//40
f 70//41 71//41 74//41
f 72//42 69//42 76//42
f 73//43 74//43 76//43
o UpperArmL
v 0.345373 0.051360 -0.051360
v 0.345373 0.051360 0.051360
v 0.345373 -0.051360 0.051360
v 0.345373 -0.051360 -0.051360
v 0.000000 -0.051360 -0.051360
v 0.000000 0.051360 -0.051360
v 0.000000 0.051360 0.051360
v 0.000000 -0.051360 0.051360
vn 0.000000 1.000000 0.000000
vn 0.000000 0.000000 1.000000
vn 0.000000 -1.000000 0.000000
vn 0.000000 0.000000 -1.000000
vn 1.000000 0.000000 0.000000
usemtl None
s off
f 82//44 83//44 78//44
f 83//45 84//45 79//45
f 80//46 79//46 84//46
f 77//47 80//47 81//47
f 78//48 79//48 80//48
f 77//44 82//44 78//44
f 78//45 83//45 79//45
f 81//46 80//46 84//46
f 82//47 77//47 81//47
f 77//48 78//48 80//48
o LowerArmL
v 0.344006 -0.045318 -0.045318
v 0.344006 0.045318 -0.045318
v 0.344006 0.045318 0.045318
v 0.344006 -0.045318 0.045318
v 0.000000 -0.045318 -0.045318
v 0.000000 -0.045318 0.045318
v -0.000000 0.045318 0.045318
v -0.000000 0.045318 -0.045318
vn 0.000000 0.000000 -1.000000
vn 1.000000 0.000000 0.000000
vn -0.000000 1.000000 0.000000
vn 0.000000 0.000000 1.000000
vn 0.000000 -1.000000 0.000000
usemtl None
s off
f 85//49 89//49 92//49
f 88//50 85//50 86//50
f 86//51 92//51 91//51
f 87//52 91//52 90//52
f 88//53 90//53 89//53
f 86//49 85//49 92//49
f 87//50 88//50 86//50
f 87//51 86//51 91//51
f 88//52 87//52 90//52
f 85//53 88//53 89//53
o ShoulderR
v 0.000000 -0.058896 -0.058896
v 0.000000 0.058896 -0.058896
v 0.000000 0.058896 0.058896
v 0.000000 -0.058896 0.058896
v -0.114908 -0.058896 -0.058896
v -0.114908 0.058896 -0.058896
v -0.114908 0.058896 0.058896
v -0.114908 -0.058896 0.058896
vn 0.000000 0.000000 1.000000
vn 0.000000 0.000000 -1.000000
vn 0.000000 1.000000 0.000000
vn 0.000000 -1.000000 0.000000
vn -1.000000 0.000000 0.000000
usemtl None
s off
f 99//54 100//54 96//54
f 97//55 98//55 94//55
f 98//56 99//56 95//56
f 100//57 97//57 93//57
f 100//58 99//58 98//58
f 95//54 99//54 96//54
f 93//55 97//55 94//55
f 94//56 98//56 95//56
f 96//57 100//57 93//57
f 97//58 100//58 98//58
o UpperArmR
v -0.345373 0.051360 -0.051360
v -0.345373 0.051360 0.051360
v -0.345373 -0.051360 0.051360
v -0.345373 -0.051360 -0.051360
v 0.000000 -0.051360 -0.051360
v 0.000000 0.051360 -0.051360
v 0.000000 0.051360 0.051360
v 0.000000 -0.051360 0.051360
vn 0.000000 1.000000 0.000000
vn 0.000000 0.000000 1.000000
vn 0.000000 -1.000000 0.000000
vn 0.000000 0.000000 -1.000000
vn -1.000000 0.000000 0.000000
usemtl None
s off
f 102//59 107//59 106//59
f 103//60 108//60 107//60
f 108//61 103//61 104//61
f 105//62 104//62 101//62
f 104//63 103//63 102//63
f 101//59 102//59 106//59
f 102//60 103//60 107//60
f 105//61 108//61 104//61
f 106//62 105//62 101//62
f 101//63 104//63 102//63
o LowerArmR
v -0.344006 -0.045318 -0.045318
v -0.344006 0.045318 -0.045318
v -0.344006 0.045318 0.045318
v -0.344006 -0.045318 0.045318
v 0.000000 -0.045318 -0.045318
v 0.000000 -0.045318 0.045318
v -0.000000 0.045318 0.045318
v -0.000000 0.045318 -0.045318
vn -0.000000 0.000000 -1.000000
vn -1.000000 0.000000 0.000000
vn -0.000000 1.000000 0.000000
vn 0.000000 0.000000 1.000000
vn 0.000000 -1.000000 0.000000
usemtl None
s off
f 116//64 113//64 109//64
f 110//65 109//65 112//65
f 115//66 116//66 110//66
f 114//67 115//67 111//67
f 113//68 114//68 112//68
f 110//64 116//64 109//64
f 111//65 110//65 112//65
f 111//66 115//66 110//66
f 112//67 114//67 111//67
f 109//68 113//68 112//68
