# Blender v2.75 (sub 0) OBJ File: 'forceFieldNew.blend'
# www.blender.org
mtllib forceFieldNew.mtl
o FloorDisc
v 4.293124 -3.501044 -21.758236
v -2.999992 -2.519256 20.109430
v 4.293124 -3.501044 21.758236
v -2.999992 -2.519256 -20.109430
v -4.293124 -3.501044 -21.758236
v 2.999992 -2.519256 20.109430
v -4.293124 -3.501044 21.758236
v 2.999992 -2.519256 -20.109430
v 0.000002 -3.501044 0.000003
v 6.600215 -3.501045 -33.181755
v 31.256521 -3.501045 -12.946900
v 28.130117 -3.501045 -18.795980
v -18.795952 -3.501045 28.130150
v -12.946871 -3.501045 31.256550
v 0.000004 -3.501045 -33.831814
v -6.600259 -3.501045 -33.181740
v 23.922684 -3.501045 -23.922731
v -6.600250 -3.501045 33.181778
v -12.946877 -3.501045 -31.256517
v 18.795925 -3.501045 -28.130148
v 0.000015 -3.501045 33.831841
v -18.795954 -3.501045 -28.130125
v 12.946840 -3.501045 -31.256540
v 6.600280 -3.501045 33.181770
v -23.922714 -3.501045 -23.922699
v 12.946898 -3.501045 31.256542
v -28.130136 -3.501045 -18.795942
v 18.795979 -3.501045 28.130140
v -31.256533 -3.501045 -12.946865
v 23.922733 -3.501045 23.922716
v -33.181759 -3.501045 -6.600250
v 28.130152 -3.501045 18.795950
v -33.831829 -3.501045 0.000010
v 31.256546 -3.501045 12.946870
v -33.181759 -3.501045 6.600271
v 33.181767 -3.501045 6.600245
v -31.256535 -3.501045 12.946887
v 33.831829 -3.501045 -0.000020
v -28.130136 -3.501045 18.795969
v 33.181755 -3.501045 -6.600285
v -23.922714 -3.501045 23.922729
v 6.726703 -4.339503 -33.817654
v 31.855524 -4.339503 -13.195016
v 28.669205 -4.339503 -19.156189
v -19.156158 -4.339503 28.669239
v -13.194985 -4.339503 31.855553
v 0.000004 -4.339503 -34.480171
v -6.726747 -4.339503 -33.817638
v 24.381140 -4.339503 -24.381189
v -6.726738 -4.339503 33.817677
v -13.194991 -4.339503 -31.855520
v 19.156132 -4.339503 -28.669237
v 0.000015 -4.339503 34.480198
v -19.156160 -4.339503 -28.669212
v 13.194955 -4.339503 -31.855543
v 6.726768 -4.339503 33.817669
v -24.381170 -4.339503 -24.381155
v 13.195013 -4.339503 31.855545
v -28.669226 -4.339503 -19.156149
v 19.156187 -4.339503 28.669230
v -31.855536 -4.339503 -13.194980
v 24.381191 -4.339503 24.381172
v -33.817657 -4.339503 -6.726738
v 28.669241 -4.339503 19.156157
v -34.480186 -4.339503 0.000010
v 31.855549 -4.339503 13.194984
v -33.817657 -4.339503 6.726759
v 33.817665 -4.339503 6.726733
v -31.855537 -4.339503 13.195003
v 34.480186 -4.339503 -0.000020
v -28.669226 -4.339503 19.156176
v 33.817654 -4.339503 -6.726773
v -24.381170 -4.339503 24.381187
vn -0.291500 0.904900 0.310100
vn 0.291500 0.904900 0.310100
vn 0.254700 0.946700 0.197200
vn 0.291500 0.904900 -0.310100
vn 0.254700 0.946700 -0.197200
vn -0.291500 0.904900 -0.310100
vn -0.254700 0.946700 -0.197200
vn -0.254700 0.946700 0.197200
vn 0.384400 0.886700 -0.256800
vn 0.000000 1.000000 0.000000
vn 0.427100 0.886700 -0.176900
vn -0.176900 0.886700 0.427100
vn -0.256800 0.886700 0.384400
vn -0.090200 0.886700 -0.453400
vn 0.000000 0.886700 -0.462300
vn 0.326900 0.886700 -0.326900
vn -0.090200 0.886700 0.453400
vn -0.176900 0.886700 -0.427100
vn 0.256800 0.886700 -0.384400
vn 0.000000 0.886700 0.462300
vn -0.256800 0.886700 -0.384400
vn 0.176900 0.886700 -0.427100
vn 0.090200 0.886700 0.453400
vn -0.326900 0.886700 -0.326900
vn 0.090200 0.886700 -0.453400
vn 0.176900 0.886700 0.427100
vn -0.384400 0.886700 -0.256800
vn 0.256800 0.886700 0.384400
vn -0.427100 0.886700 -0.176900
vn 0.326900 0.886700 0.326900
vn -0.453400 0.886700 -0.090200
vn 0.384400 0.886700 0.256800
vn -0.462300 0.886700 0.000000
vn 0.427100 0.886700 0.176900
vn -0.453400 0.886700 0.090200
vn 0.453400 0.886700 0.090200
vn -0.427100 0.886700 0.176900
vn 0.462300 0.886700 0.000000
vn -0.384400 0.886700 0.256800
vn 0.453400 0.886700 -0.090200
vn -0.326900 0.886700 0.326900
vn 0.730900 0.611700 -0.302700
vn 0.154300 0.611700 0.775900
vn 0.302700 0.611700 0.730900
vn 0.775900 0.611700 0.154300
vn 0.791100 0.611700 0.000000
vn 0.302700 0.611700 -0.730900
vn 0.154300 0.611700 -0.775900
vn -0.775900 0.611700 0.154300
vn -0.730900 0.611700 0.302700
vn -0.439500 0.611700 -0.657700
vn -0.559400 0.611700 -0.559400
vn 0.730900 0.611700 0.302700
vn 0.000000 0.611700 0.791100
vn -0.791100 0.611700 0.000000
vn 0.439500 0.611700 -0.657700
vn 0.657700 0.611700 0.439500
vn -0.302700 0.611700 -0.730900
vn -0.775900 0.611700 -0.154300
vn -0.154300 0.611700 0.775900
vn 0.559400 0.611700 0.559400
vn 0.559400 0.611700 -0.559400
vn -0.730900 0.611700 -0.302700
vn -0.154300 0.611700 -0.775900
vn 0.439500 0.611700 0.657700
vn -0.559400 0.611700 0.559400
vn -0.302700 0.611700 0.730900
vn -0.657700 0.611700 -0.439500
vn 0.775900 0.611700 -0.154300
vn 0.657700 0.611700 -0.439500
vn -0.657700 0.611700 0.439500
vn 0.000000 0.611700 -0.791100
vn -0.439500 0.611700 0.657700
usemtl Material
s 1
f 7//1 3//2 6//3
f 3//2 1//4 8//5
f 1//4 5//6 4//7
f 5//6 7//1 2//8
f 8//5 4//7 2//8
f 2//8 7//1 6//3
f 6//3 3//2 8//5
f 8//5 1//4 4//7
f 4//7 5//6 2//8
f 6//3 8//5 2//8
usemtl Material.002
f 12//9 9//10 11//11
f 14//12 9//10 13//13
f 16//14 9//10 15//15
f 17//16 9//10 12//9
f 18//17 9//10 14//12
f 19//18 9//10 16//14
f 20//19 9//10 17//16
f 21//20 9//10 18//17
f 22//21 9//10 19//18
f 23//22 9//10 20//19
f 24//23 9//10 21//20
f 25//24 9//10 22//21
f 10//25 9//10 23//22
f 26//26 9//10 24//23
f 27//27 9//10 25//24
f 15//15 9//10 10//25
f 28//28 9//10 26//26
f 29//29 9//10 27//27
f 30//30 9//10 28//28
f 31//31 9//10 29//29
f 32//32 9//10 30//30
f 33//33 9//10 31//31
f 34//34 9//10 32//32
f 35//35 9//10 33//33
f 36//36 9//10 34//34
f 37//37 9//10 35//35
f 38//38 9//10 36//36
f 39//39 9//10 37//37
f 40//40 9//10 38//38
f 41//41 9//10 39//39
f 11//11 9//10 40//40
f 13//13 9//10 41//41
f 12//9 11//11 43//42
f 24//23 56//43 58//44
f 36//36 68//45 70//46
f 23//22 55//47 42//48
f 35//35 67//49 69//50
f 22//21 54//51 57//52
f 34//34 66//53 68//45
f 21//20 53//54 56//43
f 35//35 33//33 65//55
f 20//19 52//56 55//47
f 32//32 64//57 66//53
f 19//18 51//58 54//51
f 33//33 31//31 63//59
f 18//17 50//60 53//54
f 32//32 30//30 62//61
f 20//19 17//16 49//62
f 31//31 29//29 61//63
f 16//14 48//64 51//58
f 30//30 28//28 60//65
f 13//13 41//41 73//66
f 18//17 14//12 46//67
f 27//27 59//68 61//63
f 11//11 40//40 72//69
f 17//16 12//9 44//70
f 26//26 58//44 60//65
f 39//39 71//71 73//66
f 15//15 47//72 48//64
f 10//25 42//48 47//72
f 40//40 38//38 70//46
f 13//13 45//73 46//67
f 27//27 25//24 57//52
f 39//39 37//37 69//50
f 44//70 12//9 43//42
f 26//26 24//23 58//44
f 38//38 36//36 70//46
f 10//25 23//22 42//48
f 37//37 35//35 69//50
f 25//24 22//21 57//52
f 36//36 34//34 68//45
f 24//23 21//20 56//43
f 67//49 35//35 65//55
f 23//22 20//19 55//47
f 34//34 32//32 66//53
f 22//21 19//18 54//51
f 65//55 33//33 63//59
f 21//20 18//17 53//54
f 64//57 32//32 62//61
f 52//56 20//19 49//62
f 63//59 31//31 61//63
f 19//18 16//14 51//58
f 62//61 30//30 60//65
f 45//73 13//13 73//66
f 50//60 18//17 46//67
f 29//29 27//27 61//63
f 43//42 11//11 72//69
f 49//62 17//16 44//70
f 28//28 26//26 60//65
f 41//41 39//39 73//66
f 16//14 15//15 48//64
f 15//15 10//25 47//72
f 72//69 40//40 70//46
f 14//12 13//13 46//67
f 59//68 27//27 57//52
f 71//71 39//39 69//50
o Cube_Cube.001
v -3.000000 -2.500000 20.000000
v -3.000000 -2.500000 -20.000000
v 3.000000 -2.500000 -20.000000
v 3.000000 -2.500000 20.000000
v -3.000000 2.500000 20.000000
v -3.000000 2.500000 -20.000000
v 3.000000 2.500000 -20.000000
v 3.000000 2.500000 20.000000
vt 10.000926 1.003469
vt 10.028531 -79.004204
vt 0.027568 -79.007668
vt 10.032678 -91.005363
vt 0.031720 -91.008812
vt 22.029682 -79.000061
vt 22.002069 1.007608
vt 32.003033 1.011068
vt 9.996789 13.004575
vt 0.000001 1.000016
vt 44.004185 1.015180
vt 44.031780 -78.992485
vt 32.030617 -78.996620
vt -0.004140 13.001115
vn 1.000000 0.000000 0.000000
vn 0.000000 0.000000 1.000000
vn -1.000000 0.000000 0.000000
vn 0.000000 0.000000 -1.000000
vn 0.000000 1.000000 0.000000
vn 0.000000 -1.000000 0.000000
usemtl Material.001
s off
f 74/1/74 75/2/74 79/3/74
f 75/2/75 76/4/75 80/5/75
f 76/6/76 77/7/76 81/8/76
f 77/9/77 74/1/77 78/10/77
f 77/7/78 76/6/78 75/2/78
f 78/11/79 79/12/79 80/13/79
f 78/10/74 74/1/74 79/3/74
f 79/3/75 75/2/75 80/5/75
f 80/13/76 76/6/76 81/8/76
f 81/14/77 77/9/77 78/10/77
f 74/1/78 77/7/78 75/2/78
f 81/8/79 78/11/79 80/13/79
