# Blender v2.73 (sub 0) OBJ File: 'goal.blend'
# www.blender.org
mtllib goal.mtl
o Cube_Cube.001
v 3.518387 1.544099 0.696301
v 2.103328 1.654500 0.380098
v 3.549273 -0.750000 0.386281
v 2.826301 1.654500 0.482584
v 1.380356 1.654500 0.326538
v 3.549273 0.750000 0.386281
v 2.103328 -0.750000 0.071552
v 2.103328 0.750000 0.071552
v 2.826301 0.750000 0.174039
v 1.380356 -0.750000 0.017993
v 2.826301 -0.750000 0.174039
v 1.380356 0.750000 0.017993
v -3.518387 1.544099 0.696301
v -0.000000 1.000000 -0.000000
v -2.103328 1.654500 0.380098
v -3.549273 -0.750000 0.386281
v -2.826301 1.654500 0.482584
v -0.000000 0.750000 -0.000000
v -1.380356 1.654500 0.326539
v -3.549273 0.750000 0.386281
v -0.000000 -0.750000 0.000000
v -2.103328 -0.750000 0.071553
v -2.103328 0.750000 0.071552
v -2.826301 0.750000 0.174039
v -1.380356 -0.750000 0.017993
v -2.826301 -0.750000 0.174039
v -1.380356 0.750000 0.017993
v 3.518387 -1.544099 0.696301
v 2.103328 -1.654500 0.380098
v 3.549273 0.750000 0.386281
v 2.826301 -1.654500 0.482584
v 1.380356 -1.654500 0.326538
v 3.549273 -0.750000 0.386281
v 2.103328 0.750000 0.071552
v 2.103328 -0.750000 0.071552
v 2.826301 -0.750000 0.174039
v 1.380356 0.750000 0.017993
v 2.826301 0.750000 0.174039
v 1.380356 -0.750000 0.017993
v -3.518387 -1.544099 0.696301
v -0.000000 -1.000000 -0.000000
v -2.103328 -1.654500 0.380098
v -3.549273 0.750000 0.386281
v -2.826301 -1.654500 0.482584
v -0.000000 -0.750000 -0.000000
v -1.380356 -1.654500 0.326539
v -3.549273 -0.750000 0.386281
v -0.000000 0.750000 0.000000
v -2.103328 0.750000 0.071553
v -2.103328 -0.750000 0.071552
v -2.826301 -0.750000 0.174039
v -1.380356 0.750000 0.017993
v -2.826301 0.750000 0.174039
v -1.380356 -0.750000 0.017993
v 3.363063 1.503816 0.805132
v 2.043130 1.610940 0.507800
v 2.708671 1.612430 0.601224
v 1.351053 1.607671 0.455580
v 3.394930 0.728551 0.500633
v 2.044733 0.706385 0.199411
v 2.709591 0.728951 0.298343
v 1.339884 0.723425 0.152001
v -3.363063 1.503816 0.805132
v -0.000000 0.957863 0.131409
v -2.043130 1.610940 0.507800
v -2.708671 1.612430 0.601224
v -0.000000 0.732097 0.136833
v -1.351053 1.607671 0.455581
v -3.393949 0.709716 0.495112
v -2.044733 0.706385 0.199411
v -2.712105 0.707817 0.293411
v -1.348014 0.730067 0.153656
v 3.363063 -1.503816 0.805132
v 2.043130 -1.610940 0.507800
v 2.708671 -1.612430 0.601224
v 1.351053 -1.607671 0.455580
v 3.393949 -0.709716 0.495112
v 2.044733 -0.706385 0.199411
v 2.712105 -0.707817 0.293411
v 1.348014 -0.730067 0.153656
v -3.363063 -1.503816 0.805132
v -0.000000 -0.957863 0.131409
v -2.043130 -1.610940 0.507800
v -2.708671 -1.612430 0.601224
v -0.000000 -0.732097 0.136833
v -1.351053 -1.607671 0.455581
v -3.393949 -0.709716 0.495112
v -2.041938 -0.728058 0.204557
v -2.709591 -0.728951 0.298343
v -1.348014 -0.730067 0.153656
vn 0.013000 -0.000000 -0.999900
vn 0.133000 0.320000 -0.938000
vn 0.267700 0.311100 -0.911900
vn 0.069900 0.322100 -0.944100
vn -0.070600 0.322000 -0.944100
vn 0.140400 -0.000000 -0.990100
vn -0.133000 0.320000 -0.938000
vn -0.073900 0.000000 -0.997300
vn -0.013000 0.000000 -0.999900
vn -0.327100 0.354700 -0.875900
vn -0.281700 0.000000 -0.959500
vn 0.281700 -0.000000 -0.959500
vn 0.073900 0.000000 -0.997300
vn -0.069900 0.322100 -0.944100
vn -0.140400 0.000000 -0.990100
vn 0.070600 -0.322000 -0.944100
vn 0.133000 -0.320000 -0.938000
vn 0.327100 -0.354700 -0.875900
vn 0.069900 -0.322100 -0.944100
vn -0.133000 -0.320000 -0.938000
vn -0.267700 -0.311100 -0.911900
vn -0.069900 -0.322100 -0.944100
vn -0.000000 0.446400 -0.894800
vn -0.000000 -0.446400 -0.894800
vn -0.011200 0.024000 0.999600
vn -0.128800 -0.320200 0.938600
vn -0.269100 -0.312600 0.911000
vn -0.071300 -0.323100 0.943700
vn 0.070400 -0.324300 0.943300
vn 0.131000 -0.319800 0.938400
vn -0.283700 -0.003500 0.958900
vn 0.012500 0.000000 0.999900
vn 0.331300 -0.354300 0.874500
vn 0.276400 0.003800 0.961000
vn 0.069700 -0.322000 0.944200
vn -0.147100 -0.003700 0.989100
vn -0.070400 0.324300 0.943300
vn -0.131000 0.319800 0.938400
vn -0.331300 0.354300 0.874500
vn -0.069700 0.322000 0.944200
vn 0.012400 -0.024000 0.999600
vn 0.131300 0.321900 0.937600
vn 0.329200 0.306500 0.893100
vn 0.070100 0.324300 0.943400
vn 0.000000 -0.446400 0.894800
vn 0.000000 0.446400 0.894800
vn 0.039400 0.928800 0.368400
vn -0.029700 0.941700 0.335000
vn -0.044700 0.951800 0.303600
vn 0.598500 -0.271400 0.753700
vn 0.020900 -0.988800 -0.147800
vn 0.023200 -0.949400 -0.313200
vn 0.002500 -0.981000 -0.193800
vn -0.029000 0.923300 0.383100
vn 0.023200 0.949500 0.312900
vn 0.042000 0.954100 0.296600
vn -0.598500 -0.271000 0.753900
vn 0.595600 -0.003500 0.803300
vn -0.080400 -0.961500 -0.262800
vn -0.044900 -0.951600 -0.304000
vn -0.573800 0.000000 0.819000
vn -0.012500 0.001100 0.999900
vn 0.139100 0.003800 0.990300
vn 0.023700 -0.988300 -0.150900
vn 0.029000 -0.923300 0.383100
vn -0.023200 -0.949500 0.312900
vn -0.042000 -0.954100 0.296600
vn 0.598500 0.271000 0.753900
vn 0.080400 0.961500 -0.262800
vn 0.044900 0.951600 -0.304000
vn -0.023700 0.988300 -0.150900
vn -0.039400 -0.928800 0.368400
vn 0.029700 -0.941700 0.335000
vn 0.044700 -0.951800 0.303600
vn -0.598500 0.271000 0.753900
vn -0.073900 0.965000 -0.251700
vn 0.073200 0.003700 0.997300
vn -0.067100 0.000000 0.997700
vn 0.000000 0.940000 0.341100
vn 0.000000 -0.940000 0.341100
vn 0.070600 0.322000 -0.944100
vn 0.327100 0.354700 -0.875900
vn -0.267700 0.311100 -0.911900
vn 0.267700 -0.311100 -0.911900
vn -0.070600 -0.322000 -0.944100
vn -0.327100 -0.354700 -0.875900
vn -0.071000 -0.323100 0.943700
vn -0.130900 -0.321600 0.937800
vn -0.331400 -0.356700 0.873500
vn -0.069700 -0.322000 0.944200
vn 0.012400 0.024000 0.999600
vn 0.131500 -0.320100 0.938200
vn -0.283100 -0.003800 0.959100
vn 0.268800 -0.311200 0.911500
vn 0.283700 0.000000 0.958900
vn 0.073000 -0.324200 0.943200
vn -0.139500 0.000000 0.990200
vn -0.012400 -0.024000 0.999600
vn -0.131500 0.320100 0.938200
vn -0.268800 0.311200 0.911500
vn -0.073000 0.324200 0.943200
vn 0.070400 0.324300 0.943300
vn 0.130900 0.321600 0.937800
vn 0.267200 0.359500 0.894100
vn 0.069700 0.324000 0.943500
vn 0.029000 0.923300 0.383100
vn -0.023200 0.949500 0.312900
vn -0.042000 0.954100 0.296600
vn 0.597000 -0.271500 0.754900
vn 0.075600 -0.953800 -0.290700
vn -0.010400 -0.980200 -0.197500
vn -0.004900 -0.991500 -0.129700
vn -0.039400 0.928800 0.368400
vn 0.029700 0.941700 0.335000
vn 0.044700 0.951800 0.303600
vn 0.573800 0.000000 0.819000
vn -0.073900 -0.965000 -0.251700
vn -0.042100 -0.954000 -0.296900
vn 1.000000 0.000000 0.000000
vn 0.429500 0.903000 0.000000
vn -0.011300 0.000000 0.999900
vn 0.139500 0.003600 0.990200
vn -0.023200 -0.949400 -0.313200
vn 0.039400 -0.928800 0.368400
vn -0.029700 -0.941700 0.335000
vn -0.044700 -0.951800 0.303600
vn 0.073900 0.965000 -0.251700
vn 0.042100 0.954000 -0.296900
vn 0.023200 0.949400 -0.313200
vn -0.029000 -0.923300 0.383100
vn 0.023200 -0.949500 0.312900
vn 0.042000 -0.954100 0.296600
vn -0.016000 0.988200 -0.152300
vn 0.065500 0.000000 0.997900
vn -0.065600 0.000800 0.997800
usemtl Material
s off
f 12//1 18//1 14//1
f 9//2 8//2 2//2
f 6//3 9//3 4//3
f 8//4 12//4 5//4
f 27//5 19//5 14//5
f 34//6 9//6 11//6
f 24//7 17//7 15//7
f 27//8 54//8 50//8
f 54//9 27//9 18//9
f 20//10 13//10 17//10
f 16//11 43//11 53//11
f 3//12 11//12 9//12
f 45//1 18//1 37//1
f 34//13 7//13 39//13
f 23//14 15//14 19//14
f 51//15 53//15 49//15
f 39//16 32//16 41//16
f 36//17 31//17 29//17
f 33//18 28//18 31//18
f 35//19 29//19 32//19
f 54//9 45//9 41//9
f 51//20 50//20 42//20
f 47//21 51//21 44//21
f 50//22 54//22 46//22
f 5//23 14//23 19//23
f 32//24 46//24 41//24
f 64//25 67//25 62//25
f 56//26 60//26 61//26
f 57//27 61//27 59//27
f 58//28 62//28 60//28
f 64//29 68//29 72//29
f 65//30 66//30 71//30
f 79//31 77//31 59//31
f 72//32 90//32 85//32
f 66//33 63//33 69//33
f 87//34 89//34 71//34
f 68//35 65//35 70//35
f 79//36 61//36 60//36
f 82//37 76//37 80//37
f 74//38 75//38 79//38
f 75//39 73//39 77//39
f 76//40 74//40 78//40
f 82//41 85//41 90//41
f 83//42 88//42 89//42
f 81//43 84//43 89//43
f 86//44 90//44 88//44
f 68//45 64//45 58//45
f 82//46 86//46 76//46
f 4//47 57//47 55//47
f 5//48 58//48 56//48
f 2//49 56//49 57//49
f 1//50 55//50 59//50
f 8//51 9//51 61//51
f 12//52 8//52 60//52
f 18//53 12//53 62//53
f 17//54 13//54 63//54
f 19//55 15//55 65//55
f 15//56 17//56 66//56
f 13//57 20//57 69//57
f 6//58 59//58 77//58
f 24//59 71//59 69//59
f 23//60 70//60 71//60
f 47//61 87//61 43//61
f 85//62 80//62 62//62
f 89//63 88//63 70//63
f 27//64 72//64 70//64
f 31//65 28//65 73//65
f 32//66 29//66 74//66
f 29//67 31//67 75//67
f 28//68 33//68 77//68
f 36//69 79//69 77//69
f 35//70 78//70 79//70
f 39//71 80//71 78//71
f 44//72 84//72 81//72
f 46//73 86//73 83//73
f 42//74 83//74 84//74
f 40//75 81//75 87//75
f 51//76 47//76 87//76
f 70//77 88//77 90//77
f 78//78 60//78 62//78
f 19//79 68//79 58//79
f 32//80 76//80 86//80
f 5//81 12//81 14//81
f 4//2 9//2 2//2
f 1//82 6//82 4//82
f 2//4 8//4 5//4
f 18//9 27//9 14//9
f 7//6 34//6 11//6
f 23//7 24//7 15//7
f 49//8 27//8 50//8
f 45//9 54//9 18//9
f 24//83 20//83 17//83
f 51//11 16//11 53//11
f 6//12 3//12 9//12
f 39//1 45//1 37//1
f 12//13 34//13 39//13
f 27//14 23//14 19//14
f 50//15 51//15 49//15
f 45//1 39//1 41//1
f 35//17 36//17 29//17
f 36//84 33//84 31//84
f 39//19 35//19 32//19
f 46//85 54//85 41//85
f 44//20 51//20 42//20
f 40//86 47//86 44//86
f 42//22 50//22 46//22
f 58//87 64//87 62//87
f 57//88 56//88 61//88
f 55//89 57//89 59//89
f 56//90 58//90 60//90
f 67//91 64//91 72//91
f 70//92 65//92 71//92
f 61//93 79//93 59//93
f 67//32 72//32 85//32
f 71//94 66//94 69//94
f 69//95 87//95 71//95
f 72//96 68//96 70//96
f 78//97 79//97 60//97
f 85//98 82//98 80//98
f 78//99 74//99 79//99
f 79//100 75//100 77//100
f 80//101 76//101 78//101
f 86//102 82//102 90//102
f 84//103 83//103 89//103
f 87//104 81//104 89//104
f 83//105 86//105 88//105
f 1//106 4//106 55//106
f 2//107 5//107 56//107
f 4//108 2//108 57//108
f 6//109 1//109 59//109
f 60//110 8//110 61//110
f 62//111 12//111 60//111
f 67//112 18//112 62//112
f 66//113 17//113 63//113
f 68//114 19//114 65//114
f 65//115 15//115 66//115
f 63//57 13//57 69//57
f 3//116 6//116 77//116
f 20//117 24//117 69//117
f 24//118 23//118 71//118
f 43//119 16//119 47//119
f 69//120 20//120 43//120
f 43//61 87//61 69//61
f 67//121 85//121 62//121
f 71//122 89//122 70//122
f 23//123 27//123 70//123
f 75//124 31//124 73//124
f 76//125 32//125 74//125
f 74//126 29//126 75//126
f 73//68 28//68 77//68
f 33//127 36//127 77//127
f 36//128 35//128 79//128
f 35//129 39//129 78//129
f 40//130 44//130 81//130
f 42//131 46//131 83//131
f 44//132 42//132 84//132
f 47//75 40//75 87//75
f 89//133 51//133 87//133
f 72//134 70//134 90//134
f 80//135 78//135 62//135
f 5//79 19//79 58//79
f 46//80 32//80 86//80
l 10 7
l 21 10
l 25 22
l 21 25
l 26 16
l 22 26
l 37 34
l 48 37
l 38 30
l 34 38
l 52 49
l 48 52
l 87 16
l 47 20
